{
  "accessors": [
    {
      "bufferView": 0,
      "byteOffset": 0,
      "componentType": 5123,
      "count": 63090,
      "max": [
        12022.0
      ],
      "min": [
        0.0
      ],
      "name": "buffer-0-group-0-mesh-0-indices",
      "type": "SCALAR"
    },
    {
      "bufferView": 1,
      "byteOffset": 0,
      "componentType": 5126,
      "count": 12023,
      "max": [
        27.609399795532227,
        62.367401123046875,
        81.80650329589844
      ],
      "min": [
        -27.609399795532227,
        17.12700080871582,
        -79.12629699707031
      ],
      "name": "buffer-0-group-0-mesh-0-position",
      "type": "VEC3"
    },
    {
      "bufferView": 1,
      "byteOffset": 144276,
      "componentType": 5126,
      "count": 12023,
      "max": [
        1.0,
        1.0,
        1.0
      ],
      "min": [
        -1.0,
        -1.0,
        -1.0
      ],
      "name": "buffer-0-group-0-mesh-0-normal",
      "type": "VEC3"
    },
    {
      "bufferView": 0,
      "byteOffset": 126180,
      "componentType": 5123,
      "count": 204,
      "max": [
        63.0
      ],
      "min": [
        0.0
      ],
      "name": "buffer-0-group-1-mesh-0-indices",
      "type": "SCALAR"
    },
    {
      "bufferView": 1,
      "byteOffset": 288552,
      "componentType": 5126,
      "count": 64,
      "max": [
        20.0226993560791,
        25.640600204467773,
        -25.770099639892578
      ],
      "min": [
        -20.0226993560791,
        23.44059944152832,
        -27.97599983215332
      ],
      "name": "buffer-0-group-1-mesh-0-position",
      "type": "VEC3"
    },
    {
      "bufferView": 1,
      "byteOffset": 289320,
      "componentType": 5126,
      "count": 64,
      "max": [
        0.9999999403953552,
        1.0,
        0.9999999403953552
      ],
      "min": [
        -0.9999999403953552,
        -1.0,
        -0.9999999403953552
      ],
      "name": "buffer-0-group-1-mesh-0-normal",
      "type": "VEC3"
    },
    {
      "bufferView": 2,
      "byteOffset": 0,
      "componentType": 5126,
      "count": 64,
      "max": [
        1.0003999471664429,
        -0.29980000853538513
      ],
      "min": [
        -0.0835999995470047,
        -0.7002000212669373
      ],
      "name": "buffer-0-group-1-mesh-0-texcoord",
      "type": "VEC2"
    },
    {
      "bufferView": 0,
      "byteOffset": 126588,
      "componentType": 5123,
      "count": 26532,
      "max": [
        7909.0
      ],
      "min": [
        0.0
      ],
      "name": "buffer-0-group-2-mesh-0-indices",
      "type": "SCALAR"
    },
    {
      "bufferView": 1,
      "byteOffset": 290088,
      "componentType": 5126,
      "count": 7910,
      "max": [
        27.651899337768555,
        69.24810028076172,
        83.0022964477539
      ],
      "min": [
        -27.5625,
        26.189199447631836,
        -83.06060028076172
      ],
      "name": "buffer-0-group-2-mesh-0-position",
      "type": "VEC3"
    },
    {
      "bufferView": 1,
      "byteOffset": 385008,
      "componentType": 5126,
      "count": 7910,
      "max": [
        1.0,
        0.9999640583992004,
        1.0
      ],
      "min": [
        -1.0,
        -0.9999808073043823,
        -0.9997700452804565
      ],
      "name": "buffer-0-group-2-mesh-0-normal",
      "type": "VEC3"
    },
    {
      "bufferView": 0,
      "byteOffset": 179652,
      "componentType": 5123,
      "count": 27954,
      "max": [
        6775.0
      ],
      "min": [
        0.0
      ],
      "name": "buffer-0-group-3-mesh-0-indices",
      "type": "SCALAR"
    },
    {
      "bufferView": 1,
      "byteOffset": 479928,
      "componentType": 5126,
      "count": 6776,
      "max": [
        30.095699310302734,
        31.760700225830078,
        50.23970031738281
      ],
      "min": [
        -30.095699310302734,
        -0.0,
        -41.049400329589844
      ],
      "name": "buffer-0-group-3-mesh-0-position",
      "type": "VEC3"
    },
    {
      "bufferView": 1,
      "byteOffset": 561240,
      "componentType": 5126,
      "count": 6776,
      "max": [
        1.0,
        1.0,
        0.9999997019767761
      ],
      "min": [
        -1.0,
        -0.9999998807907104,
        -0.9999997019767761
      ],
      "name": "buffer-0-group-3-mesh-0-normal",
      "type": "VEC3"
    }
  ],
  "asset": {
    "generator": "Obj2GltfConverter",
    "version": "2.0"
  },
  "bufferViews": [
    {
      "buffer": 0,
      "byteLength": 235560,
      "byteOffset": 0,
      "name": "buffer-0-bufferview-ushort",
      "target": 34963
    },
    {
      "buffer": 0,
      "byteLength": 642552,
      "byteOffset": 235560,
      "byteStride": 12,
      "name": "buffer-0-bufferview-vec3",
      "target": 34962
    },
    {
      "buffer": 0,
      "byteLength": 512,
      "byteOffset": 878112,
      "byteStride": 8,
      "name": "buffer-0-bufferview-vec2",
      "target": 34962
    }
  ],
  "buffers": [
    {
      "byteLength": 878624,
      "name": "buffer-0",
      "uri": "Chaise_Longue.bin"
    }
  ],
  "materials": [
    {
      "alphaMode": "OPAQUE",
      "doubleSided": true,
      "name": "Crome",
      "pbrMetallicRoughness": {
        "baseColorFactor": [
          0.3765,
          0.3765,
          0.3765,
          1.0
        ],
        "metallicFactor": 0.0,
        "roughnessFactor": 0.9180372181808245
      }
    },
    {
      "alphaMode": "OPAQUE",
      "doubleSided": true,
      "name": "Leather",
      "pbrMetallicRoughness": {
        "baseColorFactor": [
          0.0,
          0.0,
          0.0,
          1.0
        ],
        "metallicFactor": 0.0,
        "roughnessFactor": 0.9699476628648295
      }
    },
    {
      "alphaMode": "OPAQUE",
      "doubleSided": true,
      "name": "Wood",
      "pbrMetallicRoughness": {
        "baseColorFactor": [
          0.051,
          0.051,
          0.051,
          1.0
        ],
        "metallicFactor": 0.0,
        "roughnessFactor": 0.9699476628648295
      }
    }
  ],
  "meshes": [
    {
      "name": "buffer-0-mesh-0",
      "primitives": [
        {
          "attributes": {
            "POSITION": 1,
            "NORMAL": 2
          },
          "indices": 0,
          "material": 0,
          "mode": 4
        },
        {
          "attributes": {
            "POSITION": 4,
            "NORMAL": 5,
            "TEXCOORD_0": 6
          },
          "indices": 3,
          "material": 0,
          "mode": 4
        },
        {
          "attributes": {
            "POSITION": 8,
            "NORMAL": 9
          },
          "indices": 7,
          "material": 1,
          "mode": 4
        },
        {
          "attributes": {
            "POSITION": 11,
            "NORMAL": 12
          },
          "indices": 10,
          "material": 2,
          "mode": 4
        }
      ]
    }
  ],
  "nodes": [
    {
      "mesh": 0,
      "name": "node-0"
    }
  ],
  "scenes": [
    {
      "name": "scene-0",
      "nodes": [
        0
      ]
    }
  ]
}